<svg data-v-0dd9719b="" version="1.0" xmlns="http://www.w3.org/2000/svg" xmlns:xlink="http://www.w3.org/1999/xlink" width="100%" height="100%" viewBox="0 0 340.000000 250.000000" preserveAspectRatio="xMidYMid meet" color-interpolation-filters="sRGB" style="margin: auto;"> <rect data-v-0dd9719b="" x="0" y="0" width="100%" height="100%" fill="#ffffff" fill-opacity="1" class="background"></rect> <rect data-v-0dd9719b="" x="0" y="0" width="100%" height="100%" fill="url(#watermark)" fill-opacity="1" class="watermarklayer"></rect> <g data-v-0dd9719b="" fill="#333333" class="icon-text-wrapper icon-svg-group iconsvg" transform="translate(48.839996337890625,96.13874626159668)"><g class="iconsvg-imagesvg" transform="translate(0,8.955337524414062)"><g><rect fill="#333333" fill-opacity="0" stroke-width="2" x="0" y="0" width="60" height="39.81182278430618" class="image-rect"></rect> <svg filter="url(#colors1532018243)" x="0" y="0" width="60" height="39.81182278430618" filtersec="colorsf1288878847" class="image-svg-svg primary" style="overflow: visible;"><svg xmlns="http://www.w3.org/2000/svg" xmlns:xlink="http://www.w3.org/1999/xlink" version="1.1" x="0px" y="0px" viewBox="4.500256061553955 15.440000534057617 65.00083923339844 43.12998962402344" xml:space="preserve"><g><path d="M69.49,45.31c0.03-0.15,0-0.3-0.1-0.42c-0.09-0.11-0.24-0.18-0.39-0.18h-3.82c-0.41-1.14-1.08-2.14-2.04-2.98l-0.24-0.2   c-2.54-2.19-5.1-4.18-8.46-4.56c-0.84-0.09-1.68-0.08-2.5-0.06c-0.77,0.02-1.5,0.03-2.23-0.04L62.43,24.3   c0.46-0.44,0.71-1.04,0.71-1.67c0-0.63-0.24-1.23-0.69-1.68c-0.91-0.93-2.41-0.94-3.35-0.02L44.46,35.39   c-0.03-0.01-0.06-0.03-0.09-0.03c-0.71-0.21-1.74-0.43-2.84-0.42l9.04-15.95c0.31-0.55,0.4-1.18,0.23-1.79   c-0.17-0.61-0.57-1.13-1.12-1.44c-0.55-0.32-1.18-0.4-1.79-0.24c-0.61,0.17-1.13,0.57-1.45,1.13l-11.2,19.77   c-0.27-0.12-0.55-0.25-0.83-0.39c-0.24-0.11-0.47-0.23-0.7-0.33c-0.2-0.09-0.42-0.16-0.63-0.23c1.06-2.52,0.97-5.05,0.97-5.17   c-0.01-0.26-0.22-0.47-0.48-0.48c-0.2,0-5-0.15-7.95,2.78c-0.63,0.63-1.16,1.41-1.59,2.3c-0.27-0.37-0.55-0.73-0.86-1.05   c-2.95-2.93-7.74-2.78-7.95-2.77c-0.26,0.01-0.47,0.21-0.48,0.48c-0.01,0.15-0.12,3.56,1.6,6.4c-0.93,0.25-1.83,0.67-2.69,1.12   c-1.59,0.81-3.39,1.72-4.45,3.19c-0.54,0.73-0.8,1.59-0.77,2.44H5c-0.15,0-0.29,0.07-0.38,0.18c-0.1,0.12-0.14,0.27-0.11,0.42   c1,4.86,5.33,8.39,10.3,8.39h20.91c0.56,1.26,1.41,2.32,2.52,3.14c1.52,1.13,3.46,1.73,5.48,1.73c0.57,0,1.15-0.05,1.72-0.14   l0.15-0.03c5.5-0.91,10.26-1.69,14.54-0.16c0.69,0.24,1.44,0.14,2.06-0.29c0.62-0.42,1-1.12,1.01-1.86   c0.03-1.08-0.04-2.12-0.17-3.13C66.32,51.67,68.79,48.77,69.49,45.31z M52.29,37.91c0.25,0,0.49-0.01,0.73-0.01   c0.44,0,0.88,0.01,1.31,0.06c3.07,0.35,5.5,2.25,7.92,4.33l0.24,0.2c0.73,0.64,1.27,1.38,1.63,2.22H59.7   c-2.47-3.17-6.12-5.22-10.57-5.65c-0.83-0.08-1.63-0.08-2.42-0.05c0.12-0.03,0.23-0.06,0.34-0.1   C48.78,38.4,50.55,37.88,52.29,37.91z M10,42.86c0.93-1.27,2.62-2.13,4.11-2.89c1.42-0.74,2.83-1.39,4.27-1.21   c0.45,0.05,0.89,0.18,1.35,0.32c0.38,0.11,1.04,0.27,1.17,0.3c1.62,0.39,3.19,0.79,4.53,1.57c0.08,0.05,0.16,0.07,0.25,0.07   c0.17,0,0.34-0.09,0.43-0.25c0.14-0.24,0.06-0.54-0.18-0.68c-0.77-0.45-1.6-0.78-2.46-1.05c0.59-0.3,1.11-0.7,1.62-1.11   c0.01,0,0.06-0.04,0.08-0.06c0.29-0.23,0.59-0.46,0.89-0.67c1.96-1.34,5-1.58,7.24-0.59c0.22,0.1,1.08,0.53,1.08,0.53   c0.87,0.51,2.5,1.48,3.22,2.18c0.1,0.09,0.22,0.14,0.35,0.14s0.26-0.05,0.36-0.15c0.19-0.2,0.18-0.52-0.01-0.71   c-0.3-0.29-0.72-0.6-1.17-0.92c0.08-0.01,0.16-0.02,0.23-0.04c0.53-0.17,0.93-0.47,1.31-0.76c0.17-0.13,0.33-0.26,0.51-0.37   c1.11-0.7,2.9-0.77,4.91-0.19c0.58,0.16,1.15,0.36,1.72,0.56c0.72,0.26,1.47,0.51,2.24,0.71c-0.43,0.11-0.86,0.24-1.28,0.37   c-0.53,0.16-1.06,0.31-1.59,0.45c-0.27,0.08-0.43,0.35-0.35,0.62c0.01,0.07,0.07,0.11,0.11,0.17c-2.82,0.46-5.32,1.67-7.15,3.57   c-0.58,0.6-1.07,1.25-1.48,1.94H9.43C9.41,44.07,9.6,43.41,10,42.86z M61.62,57.13c-0.35,0.24-0.77,0.3-1.15,0.17   c-4.53-1.62-9.4-0.82-15.04,0.11l-0.15,0.03c-2.37,0.39-4.72-0.12-6.44-1.4c-1.58-1.17-2.56-2.9-2.84-5.01   c-0.38-2.81,0.51-5.5,2.51-7.57c2.17-2.25,5.38-3.49,8.96-3.49c0.51,0,1.03,0.03,1.56,0.08c9.3,0.91,13.32,8.7,13.17,16.02   C62.2,56.48,61.98,56.88,61.62,57.13z"></path><path d="M53.01,45.37c0.24,0.13,0.55,0.04,0.68-0.2c0.13-0.24,0.04-0.55-0.2-0.68c-2.36-1.28-4.94-1.81-7.26-1.47   c-2.67,0.39-4.99,1.91-6.19,4.06c-1.32,2.36-1.12,5.38,0.49,7.34c0.1,0.12,0.24,0.18,0.39,0.18c0.11,0,0.22-0.04,0.32-0.11   c0.21-0.17,0.25-0.49,0.07-0.7c-1.35-1.65-1.51-4.21-0.39-6.22c1.04-1.86,3.13-3.22,5.46-3.56C48.48,43.7,50.84,44.18,53.01,45.37z   "></path><path d="M48.93,47.1c-1.78,0.31-3.89,1.35-4.45,3.37c-0.4,1.42,0.1,2.86,0.5,4.02c0.07,0.21,0.26,0.34,0.47,0.34   c0.05,0,0.11-0.01,0.16-0.03c0.26-0.09,0.4-0.37,0.31-0.64c-0.43-1.26-0.77-2.4-0.48-3.43c0.44-1.57,2.18-2.4,3.66-2.65   c2.99-0.52,6.2,0.62,8.2,2.88c0.18,0.21,0.5,0.23,0.71,0.04c0.21-0.18,0.23-0.5,0.04-0.71C55.82,47.79,52.24,46.53,48.93,47.1z"></path></g></svg></svg> <defs><filter id="colors1532018243"><feColorMatrix type="matrix" values="0 0 0 0 0.86328125  0 0 0 0 0.35546875  0 0 0 0 0.3671875  0 0 0 1 0" class="icon-fecolormatrix"></feColorMatrix></filter> <filter id="colorsf1288878847"><feColorMatrix type="matrix" values="0 0 0 0 0.99609375  0 0 0 0 0.99609375  0 0 0 0 0.99609375  0 0 0 1 0" class="icon-fecolormatrix"></feColorMatrix></filter> <filter id="colorsb9965559210"><feColorMatrix type="matrix" values="0 0 0 0 0  0 0 0 0 0  0 0 0 0 0  0 0 0 1 0" class="icon-fecolormatrix"></feColorMatrix></filter></defs></g></g> <g transform="translate(67.00000381469727,0)"><g data-gra="path-name" fill-rule="" class="tp-name iconsvg-namesvg" transform="translate(0,0)"><g transform="scale(1)"><g><path d="M40.41-28.35L32.22-28.35C33.66-30.38 35.32-32.85 36.27-34.42L28.98-36.81C27.68-34.29 25.38-30.73 23.71-28.35L16.83-28.35 19.84-30.02C18.72-31.99 16.79-34.92 15.39-36.81L8.55-33.7C9.58-32.31 10.84-30.29 11.92-28.35L3.87-28.35 3.87-21.15 40.41-21.15ZM37.53-8.96L37.53-15.66 6.75-15.66 6.75-8.96ZM1.84-3.06L1.84 4.05 42.43 4.05 42.43-3.06ZM79.11-36.72L79.11-19.35C77.89-22.54 76.68-25.83 75.73-27.86L73.48-26.91 73.48-35.64 66.82-35.82 66.82-21.24C65.88-23.76 64.89-26.23 64.13-27.86L61.74-26.77 61.74-36.54 54.85-36.72 54.85-18.59C54.85-9.72 52.38-4.18 46.98 0.99L54.04 4.95C59.8-1.53 61.74-7.79 61.74-18.4L61.74-18.81C62.68-15.97 63.63-13.14 64.39-10.98L66.82-12.24 66.82 3.1 73.48 3.1 73.48-18.22C74.38-15.57 75.28-12.96 76-10.98L79.11-12.6 79.11 4.59 85.77 4.59 85.77-36.54ZM48.46-28.26C47.97-23.58 46.89-16.47 45.81-12.15L51.84-10.89C52.56-14.58 53.91-23.31 54.27-27.58ZM129.73-7.42L129.73-13.46 131.35-13.46 131.35-19.84 129.73-19.84 129.73-26.1 123.84-26.1 123.84-27.95 130.81-27.95 130.81-33.8 126.04-33.8C126.58-34.65 126.99-35.5 127.3-35.91L119.97-36.63C119.56-35.68 119.11-34.74 118.62-33.8L115.65-33.8 113.8-36.63 106.6-36.05C106.92-35.55 107.41-34.74 107.91-33.8L103.81-33.8 103.81-27.95 109.71-27.95 109.71-26.1 104.44-26.1 104.44-20.97 109.71-20.97 109.71-19.26 103.05-19.26 103.05-13.9 109.71-13.9 109.71-12.24 104.04-12.24 104.04-7.42 108.36-7.42C106.96-5.49 105.3-3.92 103.18-2.52L102.78-8.28C102.91-8.41 102.06-7.69 100.8-6.75L100.8-23.13 91.3-23.13 91.3-15.93 94.32-15.93 94.32-5.22C94.32-2.75 94-1.62 92.34 0.27L96.34 5.54C97.06 4.86 98.37 3.65 99.45 2.7 100.39 1.84 101.16 1.21 102.01 0.63L104.53 4.41C106.56 2.92 108.27 1.26 109.71-0.54L109.71 5.13 115.83 5.13 115.83-7.42 117.76-7.42 117.81 5.13 123.84 5.13 123.84-0.94C125.41 0.99 127.22 2.7 129.15 4.27L132.7-1.53C130.14-2.92 127.08-5.13 125.14-7.42ZM103.05-28.98C101.47-31.41 98.68-34.92 97.2-36.54L91.71-32.4C93.19-30.69 96.12-26.59 97.42-24.43ZM115.56-28.35L117.99-28.35 117.99-26.1 115.56-26.1ZM117.99-20.97L117.94-18.81 115.56-18.81 115.56-20.97ZM125.1-18.81L122.72-18.81 122.72-20.97 125.1-20.97ZM115.56-14.35L117.94-14.35 117.94-12.24 115.56-12.24ZM122.72-12.24L122.72-14.35 125.1-14.35 125.1-12.24ZM139.27-19.3C141.21-20.88 142.92-22.27 144.4-23.71L144.4-19.98 150.7-19.98 150.7-23.04C151.96-22 153.31-20.97 154.44-19.93L156.33-22.5 158.13-19.93C159.52-20.97 160.69-22.09 161.77-23.22L161.77-19.98 167.94-19.98 167.94-23.4C169.74-21.96 172.3-19.98 173.16-19.13L176.44-23.58C175.45-24.57 171.67-27.36 169.87-28.53L167.94-26.14 167.94-28.8 175.41-28.8 175.41-34.52 167.94-34.52 167.94-36.63 161.77-36.81 161.77-34.52 157.23-34.52 157.23-28.8 160.24-28.8C159.03-27.77 157.72-26.77 155.97-25.83 154.71-26.68 153.31-27.63 152.28-28.21L150.7-26.28 150.7-28.8 155.38-28.8 155.38-34.52 150.7-34.52 150.7-36.63 144.4-36.81 144.4-34.52 137.38-34.52 137.38-28.8 142.29-28.8C140.53-27.4 138.24-26.01 135.72-24.57ZM159.03-4.77L172.62-4.77 172.62-8.73 174.55-8.73 175.32-11.97 175.32-18.63 137.07-18.63 137.07-12.11 152.05-12.11 152.05-3.1C150.12-3.69 148.68-4.81 147.46-7.11 147.69-7.88 147.87-8.69 148.05-9.54L141.57-11.12C140.62-5.98 138.69-2.79 134.73 1.89L140.94 5.22C142.38 3.24 143.68 1.3 144.76-0.72 147.51 2.75 150.79 4 156.69 4.23 163.08 4.46 169.47 4.46 175.86 4.23L177.16-2.56C171.04-2.38 165.1-2.34 159.03-2.48ZM168.84-12.11L168.3-9.81 159.03-9.81 159.03-12.11Z" transform="translate(-1.840000033378601, 36.810001373291016)"></path></g> <!----> <!----> <!----> <!----> <!----> <!----> <!----></g></g> <g data-gra="path-slogan" fill-rule="" class="tp-slogan iconsvg-slogansvg" fill="#dd5b5e" transform="translate(5,48.35000228881836)"><rect x="0" height="1" y="4.185000419616699" width="22.775001525878906"></rect> <rect height="1" y="4.185000419616699" width="22.775001525878906" x="142.54500579833984"></rect> <g transform="translate(25.775001525878906,0)"><g transform="scale(1)"><path d="M0.89-8.58L2.06-8.58L2.06-1.03L6.42-1.03L6.42 0L0.89 0L0.89-8.58ZM13.22 0L12.38-2.48L8.91-2.48L8.02 0L6.84 0L10.08-8.58L11.39-8.58L14.48 0L13.22 0ZM10.64-7.31L9.28-3.52L11.95-3.52L10.69-7.31L10.64-7.31ZM16.92-8.58L21.23-1.64L21.23-8.58L22.36-8.58L22.36 0L21.05 0L16.69-6.94L16.64-6.94L16.64 0L15.52 0L15.52-8.58L16.92-8.58ZM24.98-1.03L30.28-1.03L30.28 0L23.53 0L23.53-0.94L28.78-7.59L23.91-7.59L23.91-8.58L30.28-8.58L30.28-7.59L24.98-1.03ZM32.58-5.06L37.08-5.06L37.08-8.58L38.25-8.58L38.25 0L37.08 0L37.08-3.98L32.58-3.98L32.58 0L31.41 0L31.41-8.58L32.58-8.58L32.58-5.06ZM46.83-4.27L46.83-4.27Q46.64-7.64 43.83-7.83L43.83-7.83Q40.97-7.69 40.83-4.27L40.83-4.27Q40.97-0.94 43.83-0.80L43.83-0.80Q46.64-0.98 46.83-4.27ZM48-4.27L48-4.27Q47.72 0 43.83 0.14L43.83 0.14Q39.89 0 39.61-4.27L39.61-4.27Q39.84-8.72 43.83-8.81L43.83-8.81Q47.72-8.67 48-4.27ZM55.03-3.19L55.03-8.58L56.20-8.58L56.20-3.05Q56.06 0.05 52.69 0.14L52.69 0.14Q49.55 0.05 49.41-2.86L49.41-2.86L49.41-8.58L50.58-8.58L50.58-3.19Q50.63-0.84 52.73-0.80L52.73-0.80Q55.03-0.84 55.03-3.19L55.03-3.19ZM66.33-1.08L65.44-1.78L66.05-2.48L67.13-1.64Q68.11-2.63 68.11-4.27L68.11-4.27Q67.92-7.64 65.11-7.83L65.11-7.83Q62.25-7.69 62.11-4.27L62.11-4.27Q62.25-0.94 65.11-0.80L65.11-0.80Q65.81-0.80 66.33-1.08L66.33-1.08ZM68.06-0.94L69.19-0.05L68.63 0.56L67.31-0.33Q66.47 0.14 65.11 0.14L65.11 0.14Q61.17 0 60.89-4.27L60.89-4.27Q61.13-8.72 65.11-8.81L65.11-8.81Q69-8.67 69.28-4.27L69.28-4.27Q69.23-2.20 68.06-0.94L68.06-0.94ZM70.83-8.58L72-8.58L72 0L70.83 0L70.83-8.58ZM79.64 0L78.80-2.48L75.33-2.48L74.44 0L73.27 0L76.50-8.58L77.81-8.58L80.91 0L79.64 0ZM77.06-7.31L75.70-3.52L78.38-3.52L77.11-7.31L77.06-7.31ZM83.34-8.58L87.66-1.64L87.66-8.58L88.78-8.58L88.78 0L87.47 0L83.11-6.94L83.06-6.94L83.06 0L81.94 0L81.94-8.58L83.34-8.58ZM97.73-6.05L97.73-6.05L96.61-6.05Q96.19-7.78 94.22-7.83L94.22-7.83Q91.50-7.69 91.41-4.36L91.41-4.36Q91.41-0.80 94.27-0.80L94.27-0.80Q96.23-0.84 96.70-3.19L96.70-3.19L97.83-3.19Q97.31 0.05 94.03 0.14L94.03 0.14Q90.28 0 90.19-4.31L90.19-4.31Q90.38-8.63 94.22-8.81L94.22-8.81Q97.27-8.72 97.73-6.05ZM100.36-5.06L104.86-5.06L104.86-8.58L106.03-8.58L106.03 0L104.86 0L104.86-3.98L100.36-3.98L100.36 0L99.19 0L99.19-8.58L100.36-8.58L100.36-5.06ZM113.48-3.19L113.48-8.58L114.66-8.58L114.66-3.05Q114.52 0.05 111.14 0.14L111.14 0.14Q108 0.05 107.86-2.86L107.86-2.86L107.86-8.58L109.03-8.58L109.03-3.19Q109.08-0.84 111.19-0.80L111.19-0.80Q113.48-0.84 113.48-3.19L113.48-3.19Z" transform="translate(-0.890625, 8.8125)"></path></g></g></g></g></g><defs v-gra="od"></defs></svg>